<?xml version="1.0" encoding="utf-8"?>
<!-- Generator: Adobe Illustrator 19.0.0, SVG Export Plug-In . SVG Version: 6.00 Build 0)  -->
<svg version="1.1" id="Layer_1" xmlns="http://www.w3.org/2000/svg" xmlns:xlink="http://www.w3.org/1999/xlink" x="0px" y="0px"
	 viewBox="160 -400 1600 1600" style="enable-background:new 160 -400 1600 1600;" xml:space="preserve">
<style type="text/css">
	.st0{stroke:#000000;stroke-width:15.3436;stroke-miterlimit:10;}
	.st1{fill:none;}
	.st2{fill:none;stroke:#000000;stroke-width:5.5233;stroke-miterlimit:10;}
	.st3{fill:none;stroke:#000000;stroke-width:15.079;stroke-miterlimit:10;}
	.st4{fill:none;stroke:#000000;stroke-width:19.8594;stroke-miterlimit:10;}
</style>
<path d="M368.1-101.1c-19.3-25.5-38.6-51-58-76.6c-18.3-24.2-35.8-49.6-57-71.3c-4.5-4.6-11.6,2.5-7.1,7.1
	c21.1,21.6,38.4,46.8,56.6,70.9c18.9,25,37.8,50,56.8,75C363.3-91,372-96,368.1-101.1z"/>
<g>
	<path id="XMLID_130_" class="st0" d="M957.9-194.4c1.9,2.8,2.9,6.1,2.9,9.9c0,9.5-4.3,14.2-13.1,14.2c-1.7,0-4.1-0.5-7.6-1.4
		s-6.1-1.4-8-1.4c-12.8,0-25.8,21.7-38.9,65.2c-53.4,178.6-88.1,401-104.3,667.1c6.3-20.3,14.6-47.5,25-81.5
		c3.1-10.4,6.7-15.6,11-15.6c5.2,0,7.8,5.9,7.8,17.7c0,5.7-1,12.3-2.9,19.9c-12,49.2-23.1,119.8-33.2,212
		c-2.5,20.3-7.8,30.5-16,30.5c-9.3,0-23.4-12.3-42.3-36.9c-9.1-11.8-14.2-21.3-15.6-28.4c-1.7-6.6-1.5-20.3,0.4-41.1
		c9.9-102.6,22.6-218.1,38.2-346.7c18-147,31.2-233.7,39.4-260.2C772,87.5,736.7,173.5,694.8,287c-41,111.6-76.9,217.7-107.6,318.3
		c5.4,29.3,8.2,51.3,8.2,65.9c0,18.4-9.1,42.1-27.1,70.9c-9.3,15.1-15.5,22.7-18.4,22.7c-3,0-11-18.9-24.3-56.7
		c-5.7-16.1-8.6-28.8-8.6-38.3c0-6.6,3.9-22.7,11.9-48.2c-17.6-112.5-49.4-249.6-95.6-411.2c-29.6,128.6-59.6,245.8-89.9,351.7
		c19.7,38.3,29.6,64,29.6,77.3c0,10.4-6.8,17-20.5,19.9c-28.7,5.7-52.8,31.2-72.3,76.6c-1.7,14.7-5.7,22-12.3,22
		c-9.3,0-23.7-14.4-43.1-43.2c-6-9-9.1-16.3-9.1-22c0-5.2,2.5-11.6,7.4-19.1c18.3-27.4,39.2-53.9,62.8-79.4
		c50.9-146.1,92.4-299.7,124.3-460.9C377.1,6.5,335.6-81.9,286.1-132c-8.2-8.5-16-12.8-23.4-12.8c-10.4,0-21.3,9.2-32.8,27.7
		c-10.6,19.9-21.3,39.9-32,60.3c-6,11.8-12.1,17.7-18.4,17.7c-4.9,0-7.4-4.3-7.4-12.8c0-4.3,0.8-9.2,2.5-14.9
		c37-128.1,72.3-191,105.9-188.6c39.9,2.4,91.8,87.9,155.6,256.7c15.6-61.4,23.4-117,23.4-166.6c0-25.5,2.2-38.3,6.6-38.3
		c4.1,0,13.7,10.2,28.7,30.5c4.3,6.1,6.4,18.9,6.1,38.3c-0.6,24.6-13.3,96.2-38.2,214.8c48.1,161.7,84.7,309.1,109.5,442.4
		c96.6-277,183.5-493.2,260.6-648.7c9.6-37.8,21.3-75.2,35.3-112c6-16.1,13.3-24.1,21.8-24.1C902.6-262.5,925.4-239.8,957.9-194.4z"
		/>
</g>
<g>
	<path id="XMLID_51_" class="st0" d="M1031.8-262.5c8.5,0,15.8,8,21.8,24.1c14,36.9,25.7,74.2,35.3,112
		c77.2,155.5,164.1,371.8,260.6,648.7c24.9-133.3,61.4-280.8,109.5-442.4c-24.9-118.6-37.7-190.3-38.2-214.8
		c-0.3-19.4,1.8-32.1,6.1-38.3c15.1-20.3,24.6-30.5,28.7-30.5c4.3,0,6.6,12.8,6.6,38.3c0,49.6,7.8,105.2,23.4,166.6
		c63.8-168.7,115.6-254.3,155.6-256.7c33.6-2.4,68.9,60.5,105.9,188.6c1.7,5.7,2.5,10.6,2.5,14.9c0,8.5-2.5,12.8-7.4,12.8
		c-6.3,0-12.4-5.9-18.4-17.7c-10.6-20.3-21.3-40.4-32-60.3c-11.5-18.4-22.5-27.7-32.8-27.7c-7.4,0-15.2,4.3-23.4,12.8
		c-49.5,50.1-91,138.5-124.3,265.2c32,161.2,73.5,314.8,124.3,460.9c23.6,25.5,44.5,52,62.8,79.4c4.9,7.6,7.4,13.9,7.4,19.1
		c0,5.7-3.1,13-9.1,22c-19.4,28.8-33.8,43.2-43.1,43.2c-6.6,0-10.6-7.3-12.3-22c-19.4-45.4-43.5-70.9-72.3-76.6
		c-13.7-2.8-20.5-9.5-20.5-19.9c0-13.2,9.9-39,29.6-77.3c-30.4-105.9-60.3-223.1-89.9-351.7c-46.2,161.7-78.1,298.7-95.6,411.2
		c7.9,25.5,11.9,41.6,11.9,48.2c0,9.5-2.9,22.2-8.6,38.3c-13.1,37.8-21.2,56.7-24.3,56.7s-9.2-7.6-18.4-22.7
		c-18-28.8-27.1-52.5-27.1-70.9c0-14.7,2.8-36.6,8.2-65.9c-30.7-100.7-66.5-206.8-107.6-318.3c-41.9-113.4-77.2-199.5-105.9-258.1
		c8.2,26.5,21.3,113.2,39.4,260.2c15.6,128.6,28.3,244.1,38.2,346.7c1.9,20.8,2.1,34.5,0.4,41.1c-1.4,7.1-6.6,16.5-15.6,28.4
		c-18.8,24.6-32.9,36.9-42.3,36.9c-8.2,0-13.5-10.2-16-30.5c-10.2-92.2-21.2-162.8-33.2-212c-1.9-7.6-2.9-14.2-2.9-19.9
		c0-11.8,2.6-17.7,7.8-17.7c4.3,0,8.1,5.2,11,15.6c10.4,34,18.7,61.2,25,81.5c-16.1-265.9-50.8-488.3-104.1-666.9
		c-13.1-43.5-26.1-65.2-38.9-65.2c-1.9,0-4.5,0.5-8,1.4s-5.9,1.4-7.6,1.4c-8.8,0-13.1-4.7-13.1-14.2c0-3.8,1-7.1,2.9-9.9
		C996.2-239.8,1019-262.5,1031.8-262.5z"/>
</g>
<line id="XMLID_44_" class="st1" x1="239" y1="-280" x2="1666.8" y2="-280"/>
<g>
	<ellipse id="XMLID_42_" class="st2" cx="956.8" cy="274" rx="23.7" ry="40.5"/>
	<ellipse id="XMLID_50_" class="st3" cx="960.9" cy="265.3" rx="109.5" ry="73.5"/>
	<ellipse id="XMLID_46_" class="st4" cx="962.4" cy="273.7" rx="93.1" ry="36.6"/>
	<g id="XMLID_47_">
		<g id="XMLID_48_">
			<path id="XMLID_147_" d="M968,259.7c-0.9,6.5-3,13.6-6.3,21.2c-3.9,9.2-7.5,13.8-11,13.7c-2,0-4.3-1.3-7-3.7
				c-0.2-0.2-0.3-0.5-0.3-0.8c0-0.6,0.2-0.9,0.7-0.9c0.2,0,0.3,0,0.5,0.1c1.9,1.1,3.4,1.7,4.6,1.8c2.6,0.2,5.8-4.2,9.4-12.9
				c3.5-8.6,5.5-16.3,5.9-23.2c0.1-1.3-0.2-2.1-1-2.6c-0.6-0.4-1.7-0.5-3.2-0.5c-1.5,0.1-3.3,1.2-5.3,3.3c-2.3,2.4-3.9,5.1-4.9,8.2
				c-0.1,0.4-0.2,0.9-0.2,1.3c0,0.8,0.6,1.9,1.9,3.2c0.2,0.2,0.3,0.4,0.3,0.6c0,0.4-0.3,0.5-0.9,0.5c-0.2,0-0.4,0-0.6-0.1
				c-3-1.8-4.4-3.5-4.4-5c0-0.9,0.4-2.2,1.2-3.8c1.1-2.3,2.7-4.5,4.9-6.6c2-2.1,3.8-3.4,5.3-4c0.3-0.1,0.6-0.2,1-0.2
				c0.7,0,1.8,0.3,3.4,0.8c0.1-0.1,0.3-0.2,0.6-0.2c0.8,0,2.3,0.8,4.5,2.3c0.8,0.6,1.2,1.9,1.2,4C968.3,257.3,968.2,258.4,968,259.7
				z"/>
			<g id="XMLID_143_">
				<path id="XMLID_144_" d="M968.2,259.7c-0.4,2.6-1,5.2-1.6,7.8c-0.7,2.6-1.4,5.1-2.2,7.6s-1.7,5-2.7,7.5s-2.1,4.9-3.5,7.3
					c-0.7,1.2-1.5,2.3-2.5,3.3s-2.2,2-3.8,2.4c-0.2,0.1-0.4,0.1-0.6,0.1c-0.2,0-0.4,0-0.7,0s-0.8-0.1-1.2-0.1
					c-0.8-0.1-1.5-0.4-2.2-0.7c-1.3-0.6-2.5-1.4-3.6-2.3c-0.3-0.2-0.5-0.4-0.8-0.7c-0.2-0.1-0.5-0.5-0.6-0.8c-0.2-0.4-0.2-0.7-0.2-1
					v-0.2c0-0.1,0-0.2,0-0.3c0-0.2,0.1-0.4,0.1-0.6c0.1-0.4,0.6-0.9,1.1-1.1c0.2-0.1,0.5-0.1,0.7-0.2h0.1h0.1c0.2,0,0.2,0,0.3,0
					c0.2,0,0.4,0.1,0.5,0.2c0.1,0,0.1,0,0.3,0.1l0.1,0.1c1.1,0.6,2.2,1.1,3.2,1.4c1.4,0.6,3.1-1.6,4.3-3.7c1.3-2.1,2.3-4.5,3.3-6.9
					l0.7-1.8l0.7-1.8c0.4-1.2,0.9-2.4,1.3-3.7c1.6-4.9,2.7-10,3.2-15c0.1-0.6,0.1-1.3,0.1-1.9c0-0.5-0.1-0.7-0.1-0.6
					c0,0.1,0.3,0.2-0.1,0.1c-0.4-0.1-0.9-0.1-1.4,0h-0.1h-0.1c0,0-0.1,0,0.1,0l0,0h-0.2c0,0,0,0-0.1,0s-0.3,0.1-0.5,0.2
					c-0.4,0.2-0.8,0.5-1.2,0.8c-0.8,0.7-1.7,1.5-2.4,2.4c-1.5,1.8-2.6,3.8-3.4,6c-0.1,0.3-0.1,0.4-0.2,0.6c0,0.1,0,0.3,0,0.1
					c0-0.1,0.1,0.3,0.4,0.7c0.1,0.2,0.3,0.4,0.5,0.6l0.3,0.3c-0.1-0.1,0,0,0.1,0.1s0.1,0.2,0.2,0.3c0.1,0.2,0.3,0.4,0.5,0.8
					c0.1,0.2,0.1,0.4,0.2,0.7c0,0.1,0,0.3,0,0.4v0.3c0,0.5-0.2,1.1-0.6,1.6c-0.3,0.5-0.8,0.8-1.1,0.9c-0.3,0.2-0.6,0.2-0.9,0.3
					c-0.5,0.1-0.7,0.1-1.1,0.1c-0.4,0-0.9-0.1-1.4-0.4l-0.1-0.1l-0.1-0.1c-1.2-0.7-2.3-1.6-3.4-2.7c-0.5-0.6-1.1-1.3-1.5-2.2
					c-0.2-0.5-0.4-1-0.5-1.7c0-0.3,0-0.7,0-0.8c0-0.3,0.1-0.5,0.1-0.8c0.2-0.9,0.5-1.6,0.8-2.3s0.6-1.3,1-1.9
					c0.4-0.6,0.7-1.2,1.1-1.8c0.4-0.6,0.8-1.1,1.3-1.6c0.9-1,1.8-2,2.8-2.9s2-1.7,3.2-2.5c0.6-0.4,1.2-0.7,1.8-1
					c0.3-0.2,0.7-0.3,1-0.4c0.3-0.1,0.8-0.3,1.2-0.3c0.2,0,0.5,0,0.6,0c0.2,0,0.4,0.1,0.6,0.1c0.4,0.1,0.7,0.2,1,0.3
					c0.6,0.2,1.3,0.4,1.9,0.7l-0.8,0.2c0.5-0.5,1.1-0.4,1.4-0.4c0.5,0.1,0.7,0.2,1,0.3c0.6,0.3,1.1,0.6,1.6,0.9c0.5,0.3,1,0.6,1.4,1
					c0.2,0.2,0.4,0.3,0.7,0.5c0.3,0.3,0.5,0.6,0.6,0.9c0.3,0.6,0.4,1.2,0.4,1.8c0.1,0.6,0.1,1.2,0.1,1.7
					C968.6,257.4,968.4,258.6,968.2,259.7z M967.7,259.6c0.1-1.1,0.2-2.2,0.2-3.3s-0.1-2.2-0.6-3.1c-0.1-0.2-0.3-0.4-0.4-0.5
					c-0.2-0.1-0.5-0.3-0.7-0.4c-0.5-0.3-1-0.6-1.4-0.8c-0.5-0.2-1-0.5-1.5-0.6c-0.2-0.1-0.5-0.1-0.6-0.1c-0.2,0-0.3,0.1-0.2,0
					l-0.8,0.2c-0.6-0.2-1.2-0.3-1.8-0.4c-0.3-0.1-0.6-0.1-0.8-0.1c-0.1,0-0.3,0-0.4,0c-0.2,0-0.2,0-0.3,0c-0.2,0.1-0.3,0.1-0.6,0.2
					c-0.2,0.1-0.5,0.3-0.7,0.4c-0.5,0.3-0.9,0.7-1.4,1.1c-0.9,0.8-1.7,1.7-2.5,2.6c-0.8,0.9-1.5,1.9-2.1,2.9c-0.3,0.5-0.6,1-0.9,1.5
					c-0.3,0.5-0.5,1-0.8,1.5c-0.2,0.5-0.5,1.1-0.6,1.6c-0.2,0.5-0.3,1-0.3,1.4c0,0.1,0,0.2,0,0.2c0,0.2,0,0.1,0,0.1s0,0.1,0.1,0.2
					c0.1,0.2,0.4,0.5,0.7,0.8c0.7,0.6,1.7,1.3,2.6,1.9l-0.2-0.1c-0.3-0.1-0.4-0.1-0.5-0.1s0,0-0.1,0s-0.2,0-0.4,0.1
					s-0.5,0.3-0.7,0.6s-0.4,0.7-0.4,1.1l0,0c0-0.1,0,0.1,0,0.2c0,0.1,0,0.2,0,0.3c0,0.2,0.1,0.3,0.1,0.4c0.1,0.2,0.2,0.3,0.2,0.4
					l0.1,0.1c0,0,0.1,0.1-0.1-0.1l-0.4-0.4c-0.3-0.3-0.5-0.6-0.8-0.9c-0.5-0.7-1.1-1.4-1.4-2.8c-0.1-0.9-0.1-1.4,0-1.9
					s0.3-1.1,0.4-1.3c0.9-2.8,2.5-5.4,4.4-7.7c1-1.1,2-2.1,3.3-3.1c0.6-0.5,1.3-0.9,2.2-1.3c0.4-0.2,0.9-0.4,1.4-0.5
					c0.2-0.1,0.6-0.1,0.9-0.2h0.2h0.2h0.1c0.8,0,1.6,0,2.5,0.2c0.5,0.1,1,0.2,1.6,0.6c0.6,0.3,1.2,0.9,1.5,1.5
					c0.7,1.3,0.7,2.4,0.6,3.2c-0.1,0.7-0.1,1.4-0.2,2.1c-0.7,5.5-2.1,10.7-4,15.8c-0.5,1.3-0.9,2.5-1.4,3.8l-0.8,1.8l-0.8,1.9
					c-1.1,2.5-2.3,4.9-3.8,7.2c-0.8,1.2-1.6,2.3-2.8,3.4c-0.6,0.5-1.2,1-2.2,1.4c-0.2,0.1-0.6,0.2-0.8,0.2s-0.2,0-0.3,0h-0.2h-0.1
					l0,0c0,0-0.3,0-0.2,0h-0.2h-0.3c-0.2,0-0.4-0.1-0.6-0.1c-1.5-0.4-2.8-1.1-4-1.8l-0.1-0.1c0.1,0,0,0,0,0h0.1c0,0,0,0,0.1,0l0,0
					l0,0l0,0c0,0,0.1,0,0.2,0c0.2-0.1,0.4-0.3,0.4-0.4v-0.1l0,0v0.1c0,0,0,0,0-0.1c0,0-0.1-0.1,0-0.1c0.2,0.2,0.5,0.4,0.7,0.6
					c0.9,0.8,1.9,1.6,3,2.1c0.5,0.3,1,0.5,1.6,0.6c0.3,0.1,0.4,0.1,0.8,0.1c0.2,0,0.4,0,0.7-0.1c1-0.2,1.9-0.8,2.8-1.6
					c0.9-0.8,1.7-1.8,2.4-2.9c1.5-2.1,2.7-4.4,3.9-6.8c1.2-2.4,2.2-4.8,3.2-7.2c0.9-2.5,1.8-5,2.5-7.5
					C966.9,264.8,967.4,262.2,967.7,259.6z"/>
			</g>
		</g>
	</g>
	<path d="M870.8,191.2c-4.9-4.1-12,3-7.1,7.1c12.5,10.4,19.3,25.5,18.5,41.7c-0.3,6.4,9.7,6.4,10,0
		C893.1,221.4,885.1,203.1,870.8,191.2z"/>
	<path d="M894.9,183c-4.8-4.3-11.9,2.7-7.1,7.1c12.1,11,17.9,26.7,16,42.9c-0.8,6.4,9.3,6.3,10,0C916.1,214.4,908.8,195.5,894.9,183
		z"/>
	<path d="M918.9,170.7c-3.8-5.1-12.5-0.1-8.6,5c11.6,15.5,12.6,33.5,12.8,52.2c0.1,6.4,10.1,6.4,10,0
		C932.9,207.7,931.5,187.5,918.9,170.7z"/>
	<path d="M952.9,193c-2.4-9.7-6.4-21.4-16.3-25.7c-5.8-2.6-10.9,6-5,8.6c7.9,3.5,10.4,13.8,12.1,21.5c2,9.4,2.1,19,0.3,28.4
		c-1.2,6.3,8.4,9,9.6,2.7C955.9,216.7,955.8,204.7,952.9,193z"/>
	<path d="M967.8,168.1c-3.5-5.4-12.1-0.4-8.6,5c10.2,15.9,13.2,35.2,8,53.5c-1.8,6.2,7.9,8.8,9.6,2.7
		C982.7,208.7,979.4,186.2,967.8,168.1z"/>
	<path d="M1001.2,195c-0.9-11.8-4.4-23-12-32.2c-4.1-5-11.1,2.1-7.1,7.1c6.2,7.6,8.6,17.5,9.2,27.1c0.3,5.2,0.1,10.4-0.2,15.5
		c-0.3,5.2-0.1,11.2-2.4,16c-2.8,5.8,5.8,10.9,8.6,5c2.6-5.5,3.1-11.2,3.5-17.2C1001.3,209.2,1001.7,202.1,1001.2,195z"/>
	<path d="M1014.4,171.6c-2.2-6-11.9-3.4-9.6,2.7c6.6,17.6,14.2,38.6,2.5,55.8c-3.6,5.3,5,10.3,8.6,5
		C1029.2,215.6,1021.9,191.8,1014.4,171.6z"/>
	<path d="M1034,183.3c-3-5.7-11.6-0.6-8.6,5c4.1,7.7,6.4,16.1,6.6,24.8c0.2,6.8-0.2,17-6.5,21.2c-5.3,3.6-0.3,12.2,5,8.6
		c8.8-5.9,11.1-16.5,11.4-26.5C1042.4,204.9,1039.4,193.5,1034,183.3z"/>
	<path d="M1059.7,208.4c-0.4-2.4-1-4.7-1.9-6.9c-0.7-1.9-2.9-4.9-3.1-6.9c-0.6-6.4-10.6-6.4-10,0c0.4,4,2.7,7.1,4,10.9
		c1.4,4.2,2,8.4,1.8,12.8c-0.4,8.6-3.9,16.7-9.9,22.9c-4.5,4.6,2.5,11.7,7.1,7.1c6.9-7,11.2-15.9,12.5-25.7
		C1060.7,217.8,1060.6,213.1,1059.7,208.4z"/>
</g>
</svg>
