<?xml version="1.0" encoding="utf-8"?>
<!-- Generator: Adobe Illustrator 19.0.0, SVG Export Plug-In . SVG Version: 6.00 Build 0)  -->
<svg version="1.1" id="Layer_1" xmlns="http://www.w3.org/2000/svg" xmlns:xlink="http://www.w3.org/1999/xlink" x="0px" y="0px"
	 viewBox="1834.9 -516 1668.2 1576" style="enable-background:new 1834.9 -516 1668.2 1576;" xml:space="preserve">
<style type="text/css">
@keyframes animation:lineGrow{
to {stroke-dashoffset:0;}

}

	.st0{fill:#010101;}
	.st1{fill:#010101;
	stroke:#010101;
	stroke-width:15.3436;
	stroke-miterlimit:10;
	stroke-dasharray:1500;
	stroke-dashoffset:500;
	animation:lineGrow linear 2s infinite ease-out; }
	.st2{fill:none;}
	.st3{fill:none;
	stroke:#010101;
	stroke-width:15.079;
	stroke-miterlimit:10;
	stroke-dasharray:1500;
	stroke-dashoffset:500;
	animation:lineGrow linear 2s infinite ease-out ;}
	.st4{fill:none;
	stroke:#010101;
	stroke-width:19.8594;
	stroke-miterlimit:10;
	stroke-dasharray:1500;
	stroke-dashoffset:500;
	animation:lineGrow linear 2s infinite ease-out ;}
</style>
<g>
	<path class="st0" d="M2076.1-231.1c-19.3-25.5-38.6-51-58-76.6c-18.3-24.2-35.8-49.6-57-71.3c-4.5-4.6-11.6,2.5-7.1,7.1
		c21.1,21.6,38.4,46.8,56.6,70.9c18.9,25,37.8,50,56.8,75C2071.3-221,2080-226,2076.1-231.1z"/>
	<g>
		<path id="XMLID_11_" class="st1" d="M2665.9-324.4c1.9,2.8,2.9,6.1,2.9,9.9c0,9.5-4.3,14.2-13.1,14.2c-1.7,0-4.1-0.5-7.6-1.4
			s-6.1-1.4-8-1.4c-12.8,0-25.8,21.7-38.9,65.2c-53.4,178.6-88.1,401-104.3,667.1c6.3-20.3,14.6-47.5,25-81.5
			c3.1-10.4,6.7-15.6,11-15.6c5.2,0,7.8,5.9,7.8,17.7c0,5.7-1,12.3-2.9,19.9c-12,49.2-23.1,119.8-33.2,212
			c-2.5,20.3-7.8,30.5-16,30.5c-9.3,0-23.4-12.3-42.3-36.9c-9.1-11.8-14.2-21.3-15.6-28.4c-1.7-6.6-1.5-20.3,0.4-41.1
			c9.9-102.6,22.6-218.1,38.2-346.7c18-147,31.2-233.7,39.4-260.2c-28.7,58.6-64,144.6-105.9,258.1
			c-41,111.6-76.9,217.7-107.6,318.3c5.4,29.3,8.2,51.3,8.2,65.9c0,18.4-9.1,42.1-27.1,70.9c-9.3,15.1-15.5,22.7-18.4,22.7
			c-3,0-11-18.9-24.3-56.7c-5.7-16.1-8.6-28.8-8.6-38.3c0-6.6,3.9-22.7,11.9-48.2c-17.6-112.5-49.4-249.6-95.6-411.2
			c-29.6,128.6-59.6,245.8-89.9,351.7c19.7,38.3,29.6,64,29.6,77.3c0,10.4-6.8,17-20.5,19.9c-28.7,5.7-52.8,31.2-72.3,76.6
			c-1.7,14.7-5.7,22-12.3,22c-9.3,0-23.7-14.4-43.1-43.2c-6-9-9.1-16.3-9.1-22c0-5.2,2.5-11.6,7.4-19.1
			c18.3-27.4,39.2-53.9,62.8-79.4c50.9-146.1,92.4-299.7,124.3-460.9c-33.1-126.8-74.6-215.2-124.1-265.3
			c-8.2-8.5-16-12.8-23.4-12.8c-10.4,0-21.3,9.2-32.8,27.7c-10.6,19.9-21.3,39.9-32,60.3c-6,11.8-12.1,17.7-18.4,17.7
			c-4.9,0-7.4-4.3-7.4-12.8c0-4.3,0.8-9.2,2.5-14.9c37-128.1,72.3-191,105.9-188.6c39.9,2.4,91.8,87.9,155.6,256.7
			c15.6-61.4,23.4-117,23.4-166.6c0-25.5,2.2-38.3,6.6-38.3c4.1,0,13.7,10.2,28.7,30.5c4.3,6.1,6.4,18.9,6.1,38.3
			c-0.6,24.6-13.3,96.2-38.2,214.8c48.1,161.7,84.7,309.1,109.5,442.4c96.6-277,183.5-493.2,260.6-648.7
			c9.6-37.8,21.3-75.2,35.3-112c6-16.1,13.3-24.1,21.8-24.1C2610.6-392.5,2633.4-369.8,2665.9-324.4z"/>
	</g>
	<g>
		<path id="XMLID_10_" class="st1" d="M2739.8-392.5c8.5,0,15.8,8,21.8,24.1c14,36.9,25.7,74.2,35.3,112
			c77.2,155.5,164.1,371.8,260.6,648.7c24.9-133.3,61.4-280.8,109.5-442.4c-24.9-118.6-37.7-190.3-38.2-214.8
			c-0.3-19.4,1.8-32.1,6.1-38.3c15.1-20.3,24.6-30.5,28.7-30.5c4.3,0,6.6,12.8,6.6,38.3c0,49.6,7.8,105.2,23.4,166.6
			c63.8-168.7,115.6-254.3,155.6-256.7c33.6-2.4,68.9,60.5,105.9,188.6c1.7,5.7,2.5,10.6,2.5,14.9c0,8.5-2.5,12.8-7.4,12.8
			c-6.3,0-12.4-5.9-18.4-17.7c-10.6-20.3-21.3-40.4-32-60.3c-11.5-18.4-22.5-27.7-32.8-27.7c-7.4,0-15.2,4.3-23.4,12.8
			c-49.5,50.1-91,138.5-124.3,265.2c32,161.2,73.5,314.8,124.3,460.9c23.6,25.5,44.5,52,62.8,79.4c4.9,7.6,7.4,13.9,7.4,19.1
			c0,5.7-3.1,13-9.1,22c-19.4,28.8-33.8,43.2-43.1,43.2c-6.6,0-10.6-7.3-12.3-22c-19.4-45.4-43.5-70.9-72.3-76.6
			c-13.7-2.8-20.5-9.5-20.5-19.9c0-13.2,9.9-39,29.6-77.3c-30.4-105.9-60.3-223.1-89.9-351.7c-46.2,161.7-78.1,298.7-95.6,411.2
			c7.9,25.5,11.9,41.6,11.9,48.2c0,9.5-2.9,22.2-8.6,38.3c-13.1,37.8-21.2,56.7-24.3,56.7s-9.2-7.6-18.4-22.7
			c-18-28.8-27.1-52.5-27.1-70.9c0-14.7,2.8-36.6,8.2-65.9c-30.7-100.7-66.5-206.8-107.6-318.3c-41.9-113.4-77.2-199.5-105.9-258.1
			c8.2,26.5,21.3,113.2,39.4,260.2c15.6,128.6,28.3,244.1,38.2,346.7c1.9,20.8,2.1,34.5,0.4,41.1c-1.4,7.1-6.6,16.5-15.6,28.4
			c-18.8,24.6-32.9,36.9-42.3,36.9c-8.2,0-13.5-10.2-16-30.5c-10.2-92.2-21.2-162.8-33.2-212c-1.9-7.6-2.9-14.2-2.9-19.9
			c0-11.8,2.6-17.7,7.8-17.7c4.3,0,8.1,5.2,11,15.6c10.4,34,18.7,61.2,25,81.5c-16.1-265.9-50.8-488.3-104.1-666.9
			c-13.1-43.5-26.1-65.2-38.9-65.2c-1.9,0-4.5,0.5-8,1.4s-5.9,1.4-7.6,1.4c-8.8,0-13.1-4.7-13.1-14.2c0-3.8,1-7.1,2.9-9.9
			C2704.2-369.8,2727-392.5,2739.8-392.5z"/>
	</g>
	<line id="XMLID_9_" class="st2" x1="1947" y1="-410" x2="3374.8" y2="-410"/>
	<g>
		<ellipse id="XMLID_7_" class="st3" cx="2668.9" cy="135.3" rx="109.5" ry="73.5"/>
	</g>
	<path id="XMLID_3_" class="st3" d="M2559.3,135.3c0-40.6,49-73.5,109.5-73.5s109.5,32.9,109.5,73.5"/>
	<path id="XMLID_2_" class="st3" d="M2778.3,135.3c0,40.6-49,73.5-109.5,73.5s-109.5-32.9-109.5-73.5"/>
	<path id="XMLID_1_" class="st4" d="M2577.2,143.7c1.4-3.4,37.4,18.6,92.9,18.7c55.7,0.1,91.9-22.1,93.3-18.7
		c1.5,3.7-40.1,36.6-93.1,36.6C2617.4,180.3,2575.7,147.4,2577.2,143.7"/>
	<path class="st0" d="M2590.1,142.4c-0.3,6.4,9.7,6.4,10,0c0.9-18.6-7.1-36.9-21.4-48.8"/>
	<path class="st0" d="M2602.8,99.8c-4.8-4.3-11.9,2.7-7.1,7.1c12.1,11,17.9,26.7,16,42.9c-0.8,6.4,9.3,6.3,10,0
		C2624,131.2,2616.7,112.3,2602.8,99.8z"/>
	<path class="st0" d="M2626.8,96.6c-3.8-5.1-12.5-0.1-8.6,5c11.6,15.5,12.6,33.5,12.8,52.2c0.1,6.4,10.1,6.4,10,0
		C2640.8,133.6,2639.4,113.4,2626.8,96.6z"/>
	<path class="st0" d="M2660.8,120.1c-2.4-9.7-6.4-21.4-16.3-25.7c-5.8-2.6-10.9,6-5,8.6c7.9,3.5,10.4,13.8,12.1,21.5
		c2,9.4,2.1,19,0.3,28.4c-1.2,6.3,8.4,9,9.6,2.7C2663.8,143.8,2663.7,131.8,2660.8,120.1z"/>
	<path class="st0" d="M2675.7,95.3c-3.5-5.4-12.1-0.4-8.6,5c10.2,15.9,13.2,35.2,8,53.5c-1.8,6.2,7.9,8.8,9.6,2.7
		C2690.6,135.9,2687.3,113.4,2675.7,95.3z"/>
	<path class="st0" d="M2707.9,122.9c-0.9-11.8-4.4-23-12-32.2c-4.1-5-11.1,2.1-7.1,7.1c6.2,7.6,8.6,17.5,9.2,27.1
		c0.3,5.2,0.1,10.4-0.2,15.5c-0.3,5.2-0.1,11.2-2.4,16c-2.8,5.8,5.8,10.9,8.6,5c2.6-5.5,3.1-11.2,3.5-17.2
		C2708,137.1,2708.4,130,2707.9,122.9z"/>
	<path class="st0" d="M2718.1,89.8c-2.2-6-11.9-3.4-9.6,2.7c6.6,17.6,14.2,38.6,2.5,55.8c-3.6,5.3,5,10.3,8.6,5
		C2732.9,133.8,2725.6,110,2718.1,89.8z"/>
	<path class="st0" d="M2741.9,90.8c-3-5.7-11.6-0.6-8.6,5c4.1,7.7,6.4,16.1,6.6,24.8c0.2,6.8-0.2,17-6.5,21.2
		c-5.3,3.6-0.3,12.2,5,8.6c8.8-5.9,11.1-16.5,11.4-26.5C2750.3,112.4,2747.3,101,2741.9,90.8z"/>
	<path class="st0" d="M2767.6,108.4c-0.4-2.4-1-4.7-1.9-6.9c-0.7-1.9-2.9-4.9-3.1-6.9c-0.6-6.4-10.6-6.4-10,0c0.4,4,2.7,7.1,4,10.9
		c1.4,4.2,2,8.4,1.8,12.8c-0.4,8.6-3.9,16.7-9.9,22.9c-4.5,4.6,2.5,11.7,7.1,7.1c6.9-7,11.2-15.9,12.5-25.7
		C2768.6,117.8,2768.5,113.1,2767.6,108.4z"/>
</g>
</svg>
